<mxfile host="app.diagrams.net" modified="2021-09-15T21:03:34.457Z" agent="5.0 (Macintosh; Intel Mac OS X 10_15_7) AppleWebKit/537.36 (KHTML, like Gecko) Chrome/93.0.4577.63 Safari/537.36" etag="ZDDbn36l33iH2ciG3C0Y" version="15.2.7" type="github">
  <diagram id="DN-ubVcqQUR2WmLMZ6iB" name="Page-1">
    <mxGraphModel dx="946" dy="618" grid="1" gridSize="10" guides="1" tooltips="1" connect="1" arrows="1" fold="1" page="1" pageScale="1" pageWidth="827" pageHeight="1169" math="0" shadow="0">
      <root>
        <mxCell id="0" />
        <mxCell id="1" parent="0" />
        <mxCell id="SVlpxNA2JSQ7b5Sjb05V-3" style="edgeStyle=orthogonalEdgeStyle;rounded=0;orthogonalLoop=1;jettySize=auto;html=1;exitX=1;exitY=0.25;exitDx=0;exitDy=0;entryX=0;entryY=0.25;entryDx=0;entryDy=0;" edge="1" parent="1" source="y5bsp4lvUPBrrIM6-5Ht-1" target="y5bsp4lvUPBrrIM6-5Ht-22">
          <mxGeometry relative="1" as="geometry" />
        </mxCell>
        <mxCell id="y5bsp4lvUPBrrIM6-5Ht-1" value="Graph" style="swimlane;childLayout=stackLayout;horizontal=1;startSize=30;horizontalStack=0;rounded=1;fontSize=14;fontStyle=0;strokeWidth=2;resizeParent=0;resizeLast=1;shadow=0;dashed=0;align=center;" parent="1" vertex="1">
          <mxGeometry x="330" y="15" width="160" height="75" as="geometry">
            <mxRectangle x="330" y="320" width="70" height="30" as="alternateBounds" />
          </mxGeometry>
        </mxCell>
        <mxCell id="y5bsp4lvUPBrrIM6-5Ht-2" value="initialise_vertices()&#xa;initialise_agents()" style="align=left;strokeColor=none;fillColor=none;spacingLeft=4;fontSize=12;verticalAlign=top;resizable=0;rotatable=0;part=1;" parent="y5bsp4lvUPBrrIM6-5Ht-1" vertex="1">
          <mxGeometry y="30" width="160" height="45" as="geometry" />
        </mxCell>
        <mxCell id="y5bsp4lvUPBrrIM6-5Ht-4" value="invoke object of" style="text;html=1;strokeColor=none;fillColor=none;align=center;verticalAlign=middle;whiteSpace=wrap;rounded=0;sketch=0;" parent="1" vertex="1">
          <mxGeometry x="234.5" y="30.5" width="70" height="20" as="geometry" />
        </mxCell>
        <mxCell id="y5bsp4lvUPBrrIM6-5Ht-7" value="" style="edgeStyle=orthogonalEdgeStyle;curved=0;rounded=1;sketch=0;orthogonalLoop=1;jettySize=auto;html=1;" parent="1" source="y5bsp4lvUPBrrIM6-5Ht-5" target="y5bsp4lvUPBrrIM6-5Ht-6" edge="1">
          <mxGeometry relative="1" as="geometry" />
        </mxCell>
        <mxCell id="y5bsp4lvUPBrrIM6-5Ht-5" value="" style="strokeWidth=2;html=1;shape=mxgraph.flowchart.start_2;whiteSpace=wrap;rounded=0;sketch=0;" parent="1" vertex="1">
          <mxGeometry x="11" y="41" width="30" height="30" as="geometry" />
        </mxCell>
        <mxCell id="y5bsp4lvUPBrrIM6-5Ht-28" style="edgeStyle=orthogonalEdgeStyle;curved=0;rounded=1;sketch=0;orthogonalLoop=1;jettySize=auto;html=1;entryX=0;entryY=0.25;entryDx=0;entryDy=0;" parent="1" source="y5bsp4lvUPBrrIM6-5Ht-6" target="y5bsp4lvUPBrrIM6-5Ht-2" edge="1">
          <mxGeometry relative="1" as="geometry" />
        </mxCell>
        <mxCell id="y5bsp4lvUPBrrIM6-5Ht-6" value="take as input map_location &amp;amp; agent_location" style="rounded=1;whiteSpace=wrap;html=1;absoluteArcSize=1;arcSize=14;strokeWidth=2;sketch=0;" parent="1" vertex="1">
          <mxGeometry x="72" y="30.5" width="140" height="50" as="geometry" />
        </mxCell>
        <mxCell id="SVlpxNA2JSQ7b5Sjb05V-11" style="edgeStyle=orthogonalEdgeStyle;rounded=0;orthogonalLoop=1;jettySize=auto;html=1;exitX=1.013;exitY=0.4;exitDx=0;exitDy=0;exitPerimeter=0;entryX=-0.012;entryY=0.382;entryDx=0;entryDy=0;entryPerimeter=0;" edge="1" parent="1" source="y5bsp4lvUPBrrIM6-5Ht-10" target="SVlpxNA2JSQ7b5Sjb05V-8">
          <mxGeometry relative="1" as="geometry">
            <mxPoint x="587" y="225" as="targetPoint" />
          </mxGeometry>
        </mxCell>
        <mxCell id="SVlpxNA2JSQ7b5Sjb05V-16" style="edgeStyle=orthogonalEdgeStyle;rounded=0;orthogonalLoop=1;jettySize=auto;html=1;exitX=0;exitY=0.5;exitDx=0;exitDy=0;entryX=1;entryY=0.25;entryDx=0;entryDy=0;" edge="1" parent="1" source="y5bsp4lvUPBrrIM6-5Ht-10" target="y5bsp4lvUPBrrIM6-5Ht-19">
          <mxGeometry relative="1" as="geometry" />
        </mxCell>
        <mxCell id="y5bsp4lvUPBrrIM6-5Ht-10" value="ConstraintTree" style="swimlane;childLayout=stackLayout;horizontal=1;startSize=30;horizontalStack=0;rounded=1;fontSize=14;fontStyle=0;strokeWidth=2;resizeParent=0;resizeLast=1;shadow=0;dashed=0;align=center;" parent="1" vertex="1">
          <mxGeometry x="330" y="195" width="160" height="75" as="geometry">
            <mxRectangle x="330" y="320" width="70" height="30" as="alternateBounds" />
          </mxGeometry>
        </mxCell>
        <mxCell id="y5bsp4lvUPBrrIM6-5Ht-11" value="ConstraintTree()&#xa;        - low_level()" style="align=left;strokeColor=none;fillColor=none;spacingLeft=4;fontSize=12;verticalAlign=top;resizable=0;rotatable=0;part=1;" parent="y5bsp4lvUPBrrIM6-5Ht-10" vertex="1">
          <mxGeometry y="30" width="160" height="45" as="geometry" />
        </mxCell>
        <mxCell id="y5bsp4lvUPBrrIM6-5Ht-12" style="edgeStyle=orthogonalEdgeStyle;curved=0;rounded=1;sketch=0;orthogonalLoop=1;jettySize=auto;html=1;entryX=0.5;entryY=0;entryDx=0;entryDy=0;" parent="1" source="y5bsp4lvUPBrrIM6-5Ht-2" target="y5bsp4lvUPBrrIM6-5Ht-10" edge="1">
          <mxGeometry relative="1" as="geometry" />
        </mxCell>
        <mxCell id="y5bsp4lvUPBrrIM6-5Ht-16" value="Here the graph is initialised i.e. the vertices, agents and edges are set" style="rounded=0;whiteSpace=wrap;html=1;sketch=0;align=left;verticalAlign=middle;fillColor=#fff2cc;strokeColor=#d6b656;" parent="1" vertex="1">
          <mxGeometry x="230" y="60.5" width="79" height="99.5" as="geometry" />
        </mxCell>
        <mxCell id="y5bsp4lvUPBrrIM6-5Ht-17" value="Next, the Constraint Tree is invoked. ConstraintTree() runs function low_level()" style="rounded=0;whiteSpace=wrap;html=1;sketch=0;align=left;verticalAlign=middle;fillColor=#fff2cc;strokeColor=#d6b656;" parent="1" vertex="1">
          <mxGeometry x="420" y="110" width="240" height="40" as="geometry" />
        </mxCell>
        <mxCell id="y5bsp4lvUPBrrIM6-5Ht-18" value="AStar" style="swimlane;childLayout=stackLayout;horizontal=1;startSize=30;horizontalStack=0;rounded=1;fontSize=14;fontStyle=0;strokeWidth=2;resizeParent=0;resizeLast=1;shadow=0;dashed=0;align=center;" parent="1" vertex="1">
          <mxGeometry x="41" y="188" width="160" height="90" as="geometry">
            <mxRectangle x="330" y="320" width="70" height="30" as="alternateBounds" />
          </mxGeometry>
        </mxCell>
        <mxCell id="y5bsp4lvUPBrrIM6-5Ht-19" value="AStar()&#xa;        - BreadthFirstSearch()&#xa;        - run()" style="align=left;strokeColor=none;fillColor=none;spacingLeft=4;fontSize=12;verticalAlign=top;resizable=0;rotatable=0;part=1;" parent="y5bsp4lvUPBrrIM6-5Ht-18" vertex="1">
          <mxGeometry y="30" width="160" height="60" as="geometry" />
        </mxCell>
        <mxCell id="y5bsp4lvUPBrrIM6-5Ht-22" value="BreadthFirstSearch" style="swimlane;childLayout=stackLayout;horizontal=1;startSize=30;horizontalStack=0;rounded=1;fontSize=14;fontStyle=0;strokeWidth=2;resizeParent=0;resizeLast=1;shadow=0;dashed=0;align=center;" parent="1" vertex="1">
          <mxGeometry x="631" y="17" width="160" height="70" as="geometry">
            <mxRectangle x="330" y="320" width="70" height="30" as="alternateBounds" />
          </mxGeometry>
        </mxCell>
        <mxCell id="y5bsp4lvUPBrrIM6-5Ht-23" value="BreadthFirstSearch()&#xa;        - run_bfs()" style="align=left;strokeColor=none;fillColor=none;spacingLeft=4;fontSize=12;verticalAlign=top;resizable=0;rotatable=0;part=1;" parent="y5bsp4lvUPBrrIM6-5Ht-22" vertex="1">
          <mxGeometry y="30" width="160" height="40" as="geometry" />
        </mxCell>
        <mxCell id="y5bsp4lvUPBrrIM6-5Ht-25" value="BFS is run to retrieve the h-values for A*" style="rounded=0;whiteSpace=wrap;html=1;sketch=0;align=left;verticalAlign=middle;strokeColor=#d6b656;fillColor=#fff2cc;" parent="1" vertex="1">
          <mxGeometry x="504" y="0.5" width="120" height="30" as="geometry" />
        </mxCell>
        <mxCell id="SVlpxNA2JSQ7b5Sjb05V-4" style="edgeStyle=orthogonalEdgeStyle;rounded=0;orthogonalLoop=1;jettySize=auto;html=1;exitX=0;exitY=0.5;exitDx=0;exitDy=0;entryX=1;entryY=0.5;entryDx=0;entryDy=0;" edge="1" parent="1" source="y5bsp4lvUPBrrIM6-5Ht-23" target="y5bsp4lvUPBrrIM6-5Ht-2">
          <mxGeometry relative="1" as="geometry" />
        </mxCell>
        <mxCell id="SVlpxNA2JSQ7b5Sjb05V-5" value="return h_values" style="text;html=1;align=center;verticalAlign=middle;resizable=0;points=[];autosize=1;strokeColor=none;fillColor=none;" vertex="1" parent="1">
          <mxGeometry x="514" y="67" width="100" height="20" as="geometry" />
        </mxCell>
        <mxCell id="SVlpxNA2JSQ7b5Sjb05V-8" value="TSP" style="swimlane;childLayout=stackLayout;horizontal=1;startSize=30;horizontalStack=0;rounded=1;fontSize=14;fontStyle=0;strokeWidth=2;resizeParent=0;resizeLast=1;shadow=0;dashed=0;align=center;" vertex="1" parent="1">
          <mxGeometry x="660" y="196.5" width="160" height="72" as="geometry">
            <mxRectangle x="330" y="320" width="70" height="30" as="alternateBounds" />
          </mxGeometry>
        </mxCell>
        <mxCell id="SVlpxNA2JSQ7b5Sjb05V-9" value="TSP()&#xa;      - run()" style="align=left;strokeColor=none;fillColor=none;spacingLeft=4;fontSize=12;verticalAlign=top;resizable=0;rotatable=0;part=1;" vertex="1" parent="SVlpxNA2JSQ7b5Sjb05V-8">
          <mxGeometry y="30" width="160" height="42" as="geometry" />
        </mxCell>
        <mxCell id="SVlpxNA2JSQ7b5Sjb05V-12" style="edgeStyle=orthogonalEdgeStyle;rounded=0;orthogonalLoop=1;jettySize=auto;html=1;exitX=0;exitY=0.5;exitDx=0;exitDy=0;" edge="1" parent="1" source="SVlpxNA2JSQ7b5Sjb05V-9">
          <mxGeometry relative="1" as="geometry">
            <mxPoint x="490" y="248" as="targetPoint" />
          </mxGeometry>
        </mxCell>
        <mxCell id="SVlpxNA2JSQ7b5Sjb05V-13" value="goal_traversal_order is determined for tsp-exact, tsp-nn and tsp-branch-and-bound" style="rounded=0;whiteSpace=wrap;html=1;sketch=0;align=left;verticalAlign=middle;fillColor=#fff2cc;strokeColor=#d6b656;" vertex="1" parent="1">
          <mxGeometry x="514" y="192" width="121" height="76.5" as="geometry" />
        </mxCell>
        <mxCell id="y5bsp4lvUPBrrIM6-5Ht-21" value="func low_level() calls AStar to get the paths of each agent between each pair of goals in goal_traversal_ order" style="rounded=0;whiteSpace=wrap;html=1;sketch=0;align=left;verticalAlign=middle;fillColor=#fff2cc;strokeColor=#d6b656;" parent="1" vertex="1">
          <mxGeometry x="220.5" y="177" width="98" height="120" as="geometry" />
        </mxCell>
        <mxCell id="SVlpxNA2JSQ7b5Sjb05V-30" style="edgeStyle=orthogonalEdgeStyle;rounded=0;orthogonalLoop=1;jettySize=auto;html=1;exitX=0.5;exitY=1;exitDx=0;exitDy=0;entryX=0.5;entryY=0;entryDx=0;entryDy=0;" edge="1" parent="1" source="SVlpxNA2JSQ7b5Sjb05V-19" target="SVlpxNA2JSQ7b5Sjb05V-21">
          <mxGeometry relative="1" as="geometry" />
        </mxCell>
        <mxCell id="SVlpxNA2JSQ7b5Sjb05V-19" value="Look for and resolve conflicts in the paths of all agents" style="rounded=1;whiteSpace=wrap;html=1;fillColor=none;" vertex="1" parent="1">
          <mxGeometry x="350" y="330" width="120" height="60" as="geometry" />
        </mxCell>
        <mxCell id="SVlpxNA2JSQ7b5Sjb05V-20" style="edgeStyle=orthogonalEdgeStyle;rounded=0;orthogonalLoop=1;jettySize=auto;html=1;" edge="1" parent="1" source="y5bsp4lvUPBrrIM6-5Ht-11" target="SVlpxNA2JSQ7b5Sjb05V-19">
          <mxGeometry relative="1" as="geometry" />
        </mxCell>
        <mxCell id="SVlpxNA2JSQ7b5Sjb05V-24" style="edgeStyle=orthogonalEdgeStyle;rounded=0;orthogonalLoop=1;jettySize=auto;html=1;exitX=0.5;exitY=1;exitDx=0;exitDy=0;entryX=0.5;entryY=0;entryDx=0;entryDy=0;entryPerimeter=0;" edge="1" parent="1" source="SVlpxNA2JSQ7b5Sjb05V-21" target="SVlpxNA2JSQ7b5Sjb05V-23">
          <mxGeometry relative="1" as="geometry" />
        </mxCell>
        <mxCell id="SVlpxNA2JSQ7b5Sjb05V-28" style="edgeStyle=orthogonalEdgeStyle;rounded=0;orthogonalLoop=1;jettySize=auto;html=1;entryX=0;entryY=0.5;entryDx=0;entryDy=0;" edge="1" parent="1" source="SVlpxNA2JSQ7b5Sjb05V-21" target="SVlpxNA2JSQ7b5Sjb05V-27">
          <mxGeometry relative="1" as="geometry" />
        </mxCell>
        <mxCell id="SVlpxNA2JSQ7b5Sjb05V-21" value="conflicts resolved?" style="rhombus;whiteSpace=wrap;html=1;fillColor=none;" vertex="1" parent="1">
          <mxGeometry x="374" y="416" width="80" height="80" as="geometry" />
        </mxCell>
        <mxCell id="SVlpxNA2JSQ7b5Sjb05V-23" value="" style="strokeWidth=2;html=1;shape=mxgraph.flowchart.start_2;whiteSpace=wrap;rounded=0;sketch=0;fillColor=#000000;" vertex="1" parent="1">
          <mxGeometry x="399" y="536" width="30" height="30" as="geometry" />
        </mxCell>
        <mxCell id="SVlpxNA2JSQ7b5Sjb05V-25" value="yes" style="text;html=1;strokeColor=none;fillColor=none;align=center;verticalAlign=middle;whiteSpace=wrap;rounded=0;" vertex="1" parent="1">
          <mxGeometry x="414" y="506" width="40" height="20" as="geometry" />
        </mxCell>
        <mxCell id="SVlpxNA2JSQ7b5Sjb05V-31" style="edgeStyle=orthogonalEdgeStyle;rounded=0;orthogonalLoop=1;jettySize=auto;html=1;entryX=1;entryY=0.5;entryDx=0;entryDy=0;entryPerimeter=0;exitX=0.5;exitY=1;exitDx=0;exitDy=0;" edge="1" parent="1" source="SVlpxNA2JSQ7b5Sjb05V-27" target="SVlpxNA2JSQ7b5Sjb05V-23">
          <mxGeometry relative="1" as="geometry" />
        </mxCell>
        <mxCell id="SVlpxNA2JSQ7b5Sjb05V-33" style="edgeStyle=orthogonalEdgeStyle;rounded=0;orthogonalLoop=1;jettySize=auto;html=1;entryX=1;entryY=0.5;entryDx=0;entryDy=0;exitX=0.5;exitY=0;exitDx=0;exitDy=0;" edge="1" parent="1" source="SVlpxNA2JSQ7b5Sjb05V-27" target="SVlpxNA2JSQ7b5Sjb05V-19">
          <mxGeometry relative="1" as="geometry" />
        </mxCell>
        <mxCell id="SVlpxNA2JSQ7b5Sjb05V-27" value="&lt;span&gt;conflict count &amp;gt; 200&lt;/span&gt;" style="rhombus;whiteSpace=wrap;html=1;fillColor=none;" vertex="1" parent="1">
          <mxGeometry x="504" y="416" width="136" height="80" as="geometry" />
        </mxCell>
        <mxCell id="SVlpxNA2JSQ7b5Sjb05V-29" value="no" style="text;html=1;align=center;verticalAlign=middle;resizable=0;points=[];autosize=1;strokeColor=none;fillColor=none;" vertex="1" parent="1">
          <mxGeometry x="460" y="436" width="30" height="20" as="geometry" />
        </mxCell>
        <mxCell id="SVlpxNA2JSQ7b5Sjb05V-32" value="yes" style="text;html=1;strokeColor=none;fillColor=none;align=center;verticalAlign=middle;whiteSpace=wrap;rounded=0;" vertex="1" parent="1">
          <mxGeometry x="574" y="506" width="40" height="20" as="geometry" />
        </mxCell>
        <mxCell id="SVlpxNA2JSQ7b5Sjb05V-34" value="no" style="text;html=1;align=center;verticalAlign=middle;resizable=0;points=[];autosize=1;strokeColor=none;fillColor=none;" vertex="1" parent="1">
          <mxGeometry x="574" y="390" width="30" height="20" as="geometry" />
        </mxCell>
      </root>
    </mxGraphModel>
  </diagram>
</mxfile>
